<svg width="400" height="400" viewBox="0 0 400 400" fill="none" xmlns="http://www.w3.org/2000/svg">
<path d="M0.000130813 400C26.2645 400 52.2717 394.827 76.5368 384.776C100.802 374.725 122.85 359.993 141.421 341.421C159.993 322.85 174.725 300.802 184.776 276.537C194.827 252.272 200 226.264 200 200L0.00012207 200L0.000130813 400Z" fill="#C2DE16"/>
<g clip-path="url(#clip0_701_18677)">
<mask id="mask0_701_18677" style="mask-type:alpha" maskUnits="userSpaceOnUse" x="-80" y="-78" width="557" height="557">
<line x1="193.05" y1="477.893" x2="475.893" y2="195.05" stroke="#C2DE16" stroke-width="2"/>
<line x1="181.737" y1="466.578" x2="464.579" y2="183.735" stroke="#C2DE16" stroke-width="2"/>
<line x1="170.423" y1="455.266" x2="453.266" y2="172.423" stroke="#C2DE16" stroke-width="2"/>
<line x1="159.109" y1="443.951" x2="441.952" y2="161.108" stroke="#C2DE16" stroke-width="2"/>
<line x1="147.795" y1="432.639" x2="430.638" y2="149.796" stroke="#C2DE16" stroke-width="2"/>
<line x1="136.482" y1="421.324" x2="419.324" y2="138.481" stroke="#C2DE16" stroke-width="2"/>
<line x1="125.168" y1="410.01" x2="408.011" y2="127.167" stroke="#C2DE16" stroke-width="2"/>
<line x1="113.854" y1="398.697" x2="396.697" y2="115.855" stroke="#C2DE16" stroke-width="2"/>
<line x1="102.541" y1="387.383" x2="385.383" y2="104.54" stroke="#C2DE16" stroke-width="2"/>
<line x1="91.2269" y1="376.068" x2="374.07" y2="93.2256" stroke="#C2DE16" stroke-width="2"/>
<line x1="79.9131" y1="364.756" x2="362.756" y2="81.9131" stroke="#C2DE16" stroke-width="2"/>
<line x1="68.5997" y1="353.441" x2="351.442" y2="70.5986" stroke="#C2DE16" stroke-width="2"/>
<line x1="57.2859" y1="342.129" x2="340.129" y2="59.2861" stroke="#C2DE16" stroke-width="2"/>
<line x1="45.9722" y1="330.814" x2="328.815" y2="47.9717" stroke="#C2DE16" stroke-width="2"/>
<line x1="34.6585" y1="319.5" x2="317.501" y2="36.6572" stroke="#C2DE16" stroke-width="2"/>
<line x1="23.3448" y1="308.187" x2="306.188" y2="25.3447" stroke="#C2DE16" stroke-width="2"/>
<line x1="12.0311" y1="296.873" x2="294.874" y2="14.0303" stroke="#C2DE16" stroke-width="2"/>
<line x1="0.717332" y1="285.559" x2="283.56" y2="2.71681" stroke="#C2DE16" stroke-width="2"/>
<line x1="-10.5964" y1="274.247" x2="272.246" y2="-8.59569" stroke="#C2DE16" stroke-width="2"/>
<line x1="-21.9101" y1="262.932" x2="260.933" y2="-19.9111" stroke="#C2DE16" stroke-width="2"/>
<line x1="-33.2238" y1="251.62" x2="249.619" y2="-31.2226" stroke="#C2DE16" stroke-width="2"/>
<line x1="-44.5376" y1="240.305" x2="238.305" y2="-42.5381" stroke="#C2DE16" stroke-width="2"/>
<line x1="-55.8513" y1="228.991" x2="226.991" y2="-53.8515" stroke="#C2DE16" stroke-width="2"/>
<line x1="-67.165" y1="217.678" x2="215.678" y2="-65.165" stroke="#C2DE16" stroke-width="2"/>
<line x1="-78.4787" y1="206.364" x2="204.364" y2="-76.4785" stroke="#C2DE16" stroke-width="2"/>
</mask>
<g mask="url(#mask0_701_18677)">
<circle cx="200" cy="200" r="199" transform="rotate(-180 200 200)" fill="#0973E0" stroke="#0973E0" stroke-width="2"/>
</g>
</g>
<path d="M200 -8.74228e-06C173.736 -7.59423e-06 147.729 5.17315 123.463 15.2241C99.1983 25.275 77.1505 40.0069 58.5788 58.5787C40.007 77.1504 25.2751 99.1982 15.2242 123.463C5.17327 147.728 0.000119774 173.736 0.00012207 200L200 200L200 -8.74228e-06Z" fill="#953FA4"/>
<path d="M392.388 61.7317C397.413 73.8642 400 86.8678 400 100L300 100C286.868 100 273.864 97.4134 261.732 92.388C249.599 87.3625 238.575 79.9965 229.289 70.7107C220.003 61.4248 212.638 50.4009 207.612 38.2683C202.587 26.1358 200 13.1322 200 0L300 0C313.132 0 326.136 2.58658 338.268 7.61205C350.401 12.6375 361.425 20.0035 370.711 29.2893C379.997 38.5752 387.362 49.5991 392.388 61.7317Z" fill="#953FA4"/>
<path d="M392.388 138.268C397.413 126.136 400 113.132 400 100L300 100C286.868 100 273.864 102.587 261.732 107.612C249.599 112.638 238.575 120.003 229.289 129.289C220.003 138.575 212.638 149.599 207.612 161.732C202.587 173.864 200 186.868 200 200H300C313.132 200 326.136 197.413 338.268 192.388C350.401 187.362 361.425 179.997 370.711 170.711C379.997 161.425 387.362 150.401 392.388 138.268Z" fill="#C2DE16"/>
<defs>
<clipPath id="clip0_701_18677">
<rect width="400" height="200" fill="white" transform="matrix(-1 0 0 -1 400 400)"/>
</clipPath>
</defs>
</svg>
