<svg width="400" height="400" viewBox="0 0 400 400" fill="none" xmlns="http://www.w3.org/2000/svg">
<g clip-path="url(#clip0_738_3201)">
<path d="M7.61205 138.268C2.58658 126.136 0 113.132 0 100L100 100C113.132 100 126.136 102.587 138.268 107.612C150.401 112.638 161.425 120.003 170.711 129.289C179.997 138.575 187.362 149.599 192.388 161.732C197.413 173.864 200 186.868 200 200L100 200C86.8678 200 73.8642 197.413 61.7317 192.388C49.5991 187.362 38.5752 179.997 29.2893 170.711C20.0035 161.425 12.6375 150.401 7.61205 138.268Z" fill="#953FA4"/>
<path d="M7.61205 61.7317C2.58658 73.8642 0 86.8678 0 100L100 100C113.132 100 126.136 97.4134 138.268 92.388C150.401 87.3625 161.425 79.9965 170.711 70.7107C179.997 61.4248 187.362 50.4009 192.388 38.2683C197.413 26.1358 200 13.1322 200 0L100 0C86.8678 0 73.8642 2.58658 61.7317 7.61205C49.5991 12.6375 38.5752 20.0035 29.2893 29.2893C20.0035 38.5752 12.6375 49.5991 7.61205 61.7317Z" fill="#00C1CD"/>
<path d="M200 302C200 328.264 194.827 354.272 184.776 378.537C174.725 402.802 159.993 424.85 141.421 443.421C122.85 461.993 100.802 476.725 76.5367 486.776C52.2716 496.827 26.2644 502 0 502L1.50996e-05 302L200 302Z" fill="#953FA4"/>
<g clip-path="url(#clip1_738_3201)">
<mask id="mask0_738_3201" style="mask-type:alpha" maskUnits="userSpaceOnUse" x="-278" y="22" width="557" height="557">
<line y1="-1" x2="400" y2="-1" transform="matrix(-0.707107 0.707107 0.707107 0.707107 278.6 295.758)" stroke="#C2DE16" stroke-width="2"/>
<line y1="-1" x2="400" y2="-1" transform="matrix(-0.707107 0.707107 0.707107 0.707107 267.286 284.443)" stroke="#C2DE16" stroke-width="2"/>
<line y1="-1" x2="400" y2="-1" transform="matrix(-0.707107 0.707107 0.707107 0.707107 255.973 273.131)" stroke="#C2DE16" stroke-width="2"/>
<line y1="-1" x2="400" y2="-1" transform="matrix(-0.707107 0.707107 0.707107 0.707107 244.659 261.816)" stroke="#C2DE16" stroke-width="2"/>
<line y1="-1" x2="400" y2="-1" transform="matrix(-0.707107 0.707107 0.707107 0.707107 233.345 250.504)" stroke="#C2DE16" stroke-width="2"/>
<line y1="-1" x2="400" y2="-1" transform="matrix(-0.707107 0.707107 0.707107 0.707107 222.031 239.189)" stroke="#C2DE16" stroke-width="2"/>
<line y1="-1" x2="400" y2="-1" transform="matrix(-0.707107 0.707107 0.707107 0.707107 210.718 227.875)" stroke="#C2DE16" stroke-width="2"/>
<line y1="-1" x2="400" y2="-1" transform="matrix(-0.707107 0.707107 0.707107 0.707107 199.404 216.562)" stroke="#C2DE16" stroke-width="2"/>
<line y1="-1" x2="400" y2="-1" transform="matrix(-0.707107 0.707107 0.707107 0.707107 188.09 205.248)" stroke="#C2DE16" stroke-width="2"/>
<line y1="-1" x2="400" y2="-1" transform="matrix(-0.707107 0.707107 0.707107 0.707107 176.776 193.934)" stroke="#C2DE16" stroke-width="2"/>
<line y1="-1" x2="400" y2="-1" transform="matrix(-0.707107 0.707107 0.707107 0.707107 165.463 182.621)" stroke="#C2DE16" stroke-width="2"/>
<line y1="-1" x2="400" y2="-1" transform="matrix(-0.707107 0.707107 0.707107 0.707107 154.149 171.307)" stroke="#C2DE16" stroke-width="2"/>
<line y1="-1" x2="400" y2="-1" transform="matrix(-0.707107 0.707107 0.707107 0.707107 142.835 159.994)" stroke="#C2DE16" stroke-width="2"/>
<line y1="-1" x2="400" y2="-1" transform="matrix(-0.707107 0.707107 0.707107 0.707107 131.521 148.68)" stroke="#C2DE16" stroke-width="2"/>
<line y1="-1" x2="400" y2="-1" transform="matrix(-0.707107 0.707107 0.707107 0.707107 120.208 137.365)" stroke="#C2DE16" stroke-width="2"/>
<line y1="-1" x2="400" y2="-1" transform="matrix(-0.707107 0.707107 0.707107 0.707107 108.895 126.053)" stroke="#C2DE16" stroke-width="2"/>
<line y1="-1" x2="400" y2="-1" transform="matrix(-0.707107 0.707107 0.707107 0.707107 97.5811 114.738)" stroke="#C2DE16" stroke-width="2"/>
<line y1="-1" x2="400" y2="-1" transform="matrix(-0.707107 0.707107 0.707107 0.707107 86.2676 103.424)" stroke="#C2DE16" stroke-width="2"/>
<line y1="-1" x2="400" y2="-1" transform="matrix(-0.707107 0.707107 0.707107 0.707107 74.9531 92.1113)" stroke="#C2DE16" stroke-width="2"/>
<line y1="-1" x2="400" y2="-1" transform="matrix(-0.707107 0.707107 0.707107 0.707107 63.6396 80.7969)" stroke="#C2DE16" stroke-width="2"/>
<line y1="-1" x2="400" y2="-1" transform="matrix(-0.707107 0.707107 0.707107 0.707107 52.3252 69.4844)" stroke="#C2DE16" stroke-width="2"/>
<line y1="-1" x2="400" y2="-1" transform="matrix(-0.707107 0.707107 0.707107 0.707107 41.0117 58.1699)" stroke="#C2DE16" stroke-width="2"/>
<line y1="-1" x2="400" y2="-1" transform="matrix(-0.707107 0.707107 0.707107 0.707107 29.6982 46.8555)" stroke="#C2DE16" stroke-width="2"/>
<line y1="-1" x2="400" y2="-1" transform="matrix(-0.707107 0.707107 0.707107 0.707107 18.3848 35.543)" stroke="#C2DE16" stroke-width="2"/>
<line y1="-1" x2="400" y2="-1" transform="matrix(-0.707107 0.707107 0.707107 0.707107 7.07129 24.2285)" stroke="#C2DE16" stroke-width="2"/>
</mask>
<g mask="url(#mask0_738_3201)">
<circle cx="200" cy="200" r="199" transform="matrix(-1.19249e-08 -1 -1 1.19249e-08 200 502)" fill="#C2DE16" stroke="#C2DE16" stroke-width="2"/>
</g>
</g>
<path d="M200 302C226.264 302 252.272 307.173 276.537 317.224C300.802 327.275 322.85 342.007 341.421 360.579C359.993 379.15 374.725 401.198 384.776 425.463C394.827 449.728 400 475.736 400 502L200 502L200 302Z" fill="#C2DE16"/>
</g>
<defs>
<clipPath id="clip0_738_3201">
<rect width="400" height="400" fill="white" transform="matrix(-1 0 0 1 400 0)"/>
</clipPath>
<clipPath id="clip1_738_3201">
<rect width="400" height="200" fill="white" transform="matrix(-1.19249e-08 -1 -1 1.19249e-08 200 502)"/>
</clipPath>
</defs>
</svg>
